<svg width="28" height="28" viewBox="0 0 28 28" fill="none" xmlns="http://www.w3.org/2000/svg">
<g clip-path="url(#clip0_35_96)">
<path d="M14 0C21.74 0 28 6.26 28 14C28 21.74 21.74 28 14 28C6.26 28 0 21.74 0 14C0 6.26 6.26 0 14 0ZM11.44 21.38C17.64 21.38 21.04 16.24 21.04 11.78V11.34C21.7 10.86 22.28 10.26 22.72 9.58C22.12 9.84 21.46 10.02 20.78 10.12C21.48 9.7 22.02 9.04 22.26 8.26C21.6 8.64 20.88 8.92 20.12 9.08C19.5 8.42 18.62 8.02 17.66 8.02C15.8 8.02 14.28 9.54 14.28 11.4C14.28 11.66 14.3 11.92 14.38 12.16C11.58 12.02 9.08 10.68 7.42 8.64C7.14 9.14 6.96 9.72 6.96 10.34C6.96 11.5 7.56 12.54 8.46 13.14C7.9 13.14 7.38 12.98 6.94 12.72V12.76C6.94 14.4 8.1 15.76 9.64 16.08C9.36 16.16 9.06 16.2 8.76 16.2C8.54 16.2 8.34 16.18 8.12 16.14C8.54 17.48 9.8 18.46 11.26 18.48C10.1 19.38 8.64 19.92 7.06 19.92C6.78 19.92 6.52 19.92 6.26 19.88C7.74 20.84 9.52 21.4 11.42 21.4" fill="#AF3E4D"/>
</g>
<defs>
<clipPath id="clip0_35_96">
<rect width="28" height="28" fill="white"/>
</clipPath>
</defs>
</svg>
