<svg width="32" height="32" viewBox="0 0 32 32" fill="none" xmlns="http://www.w3.org/2000/svg">
<path d="M17.3707 2.66663C18.8707 2.67063 19.632 2.67863 20.2893 2.69729L20.548 2.70663C20.8467 2.71729 21.1413 2.73063 21.4973 2.74663C22.916 2.81329 23.884 3.03729 24.7333 3.36663C25.6133 3.70529 26.3547 4.16396 27.096 4.90396C27.7742 5.57027 28.2989 6.37659 28.6333 7.26663C28.9627 8.11596 29.1867 9.08396 29.2533 10.504C29.2693 10.8586 29.2827 11.1533 29.2933 11.4533L29.3013 11.712C29.3213 12.368 29.3293 13.1293 29.332 14.6293L29.3333 15.624V17.3706C29.3366 18.3432 29.3263 19.3157 29.3027 20.288L29.2947 20.5466C29.284 20.8466 29.2707 21.1413 29.2547 21.496C29.188 22.916 28.9613 23.8826 28.6333 24.7333C28.2989 25.6233 27.7742 26.4297 27.096 27.096C26.4297 27.7742 25.6234 28.2989 24.7333 28.6333C23.884 28.9626 22.916 29.1866 21.4973 29.2533L20.548 29.2933L20.2893 29.3013C19.632 29.32 18.8707 29.3293 17.3707 29.332L16.376 29.3333H14.6307C13.6577 29.3367 12.6847 29.3265 11.712 29.3026L11.4533 29.2946C11.1368 29.2826 10.8203 29.2689 10.504 29.2533C9.08532 29.1866 8.11732 28.9626 7.26665 28.6333C6.37709 28.2987 5.57124 27.7741 4.90532 27.096C4.22658 26.4298 3.70146 25.6235 3.36665 24.7333C3.03732 23.884 2.81332 22.916 2.74665 21.496L2.70665 20.5466L2.69999 20.288C2.67541 19.3157 2.66429 18.3432 2.66665 17.3706V14.6293C2.66296 13.6568 2.67274 12.6842 2.69599 11.712L2.70532 11.4533C2.71599 11.1533 2.72932 10.8586 2.74532 10.504C2.81199 9.08396 3.03599 8.11729 3.36532 7.26663C3.70091 6.37622 4.22695 5.56987 4.90665 4.90396C5.57219 4.22602 6.37757 3.70139 7.26665 3.36663C8.11732 3.03729 9.08399 2.81329 10.504 2.74663C10.8587 2.73063 11.1547 2.71729 11.4533 2.70663L11.712 2.69863C12.6842 2.67494 13.6568 2.66471 14.6293 2.66796L17.3707 2.66663ZM16 9.33329C14.2319 9.33329 12.5362 10.0357 11.2859 11.2859C10.0357 12.5362 9.33332 14.2318 9.33332 16C9.33332 17.7681 10.0357 19.4638 11.2859 20.714C12.5362 21.9642 14.2319 22.6666 16 22.6666C17.7681 22.6666 19.4638 21.9642 20.714 20.714C21.9643 19.4638 22.6667 17.7681 22.6667 16C22.6667 14.2318 21.9643 12.5362 20.714 11.2859C19.4638 10.0357 17.7681 9.33329 16 9.33329ZM16 12C16.5253 11.9999 17.0454 12.1032 17.5308 12.3042C18.0161 12.5051 18.4571 12.7997 18.8286 13.1711C19.2001 13.5424 19.4948 13.9833 19.6959 14.4686C19.897 14.9539 20.0006 15.474 20.0007 15.9993C20.0007 16.5246 19.8974 17.0447 19.6964 17.5301C19.4955 18.0154 19.2009 18.4564 18.8296 18.8279C18.4582 19.1994 18.0173 19.4941 17.532 19.6952C17.0467 19.8963 16.5266 19.9999 16.0013 20C14.9405 20 13.923 19.5785 13.1729 18.8284C12.4227 18.0782 12.0013 17.0608 12.0013 16C12.0013 14.9391 12.4227 13.9217 13.1729 13.1715C13.923 12.4214 14.9405 12 16.0013 12M23.0013 7.33329C22.5593 7.33329 22.1354 7.50889 21.8228 7.82145C21.5102 8.13401 21.3347 8.55793 21.3347 8.99996C21.3347 9.44199 21.5102 9.86591 21.8228 10.1785C22.1354 10.491 22.5593 10.6666 23.0013 10.6666C23.4433 10.6666 23.8673 10.491 24.1798 10.1785C24.4924 9.86591 24.668 9.44199 24.668 8.99996C24.668 8.55793 24.4924 8.13401 24.1798 7.82145C23.8673 7.50889 23.4433 7.33329 23.0013 7.33329Z" fill="#AF3E4D"/>
</svg>
