<svg width="40" height="40" viewBox="0 0 40 40" fill="none" xmlns="http://www.w3.org/2000/svg">
<path d="M20.4067 6.66663C21.2967 6.67163 23.5233 6.69329 25.89 6.78829L26.73 6.82496C29.1117 6.93663 31.4917 7.12996 32.6733 7.45829C34.2483 7.90163 35.485 9.19163 35.9033 10.8283C36.57 13.4283 36.6533 18.4983 36.6633 19.7266L36.665 19.98V20.27C36.6533 21.4983 36.57 26.57 35.9033 29.1683C35.48 30.81 34.2417 32.1016 32.6733 32.5383C31.4917 32.8666 29.1117 33.06 26.73 33.1716L25.89 33.21C23.5233 33.3033 21.2967 33.3266 20.4067 33.33L20.015 33.3316H19.59C17.7067 33.32 9.83001 33.235 7.32334 32.5383C5.75001 32.095 4.51168 30.805 4.09334 29.1683C3.42668 26.5683 3.34334 21.4983 3.33334 20.27V19.7266C3.34334 18.4983 3.42668 13.4266 4.09334 10.8283C4.51668 9.18663 5.75501 7.89496 7.32501 7.45996C9.83001 6.76163 17.7083 6.67663 19.5917 6.66663H20.4067ZM16.665 14.1666V25.8333L26.665 20L16.665 14.1666Z" fill="#AF3E4D"/>
</svg>
